<svg width="75" height="15" viewBox="0 0 75 15" fill="none" xmlns="http://www.w3.org/2000/svg">
<path d="M7.49999 11.45L12.135 14.2481L10.905 8.97561L15 5.4281L9.60814 4.97124L7.49999 0L5.39186 4.97124L0 5.4281L4.09501 8.97561L2.86502 14.2481L7.49999 11.45Z" fill="#B5FF78"/>
<path d="M37.5 11.45L42.135 14.2481L40.905 8.97561L45 5.4281L39.6081 4.97124L37.5 0L35.3919 4.97124L30 5.4281L34.095 8.97561L32.865 14.2481L37.5 11.45Z" fill="#B5FF78"/>
<path d="M67.5 11.45L72.135 14.2481L70.905 8.97561L75 5.4281L69.6081 4.97124L67.5 0L65.3919 4.97124L60 5.4281L64.095 8.97561L62.865 14.2481L67.5 11.45Z" fill="#B5FF78"/>
<path d="M22.5 11.45L27.135 14.2481L25.905 8.97561L30 5.4281L24.6081 4.97124L22.5 0L20.3919 4.97124L15 5.4281L19.095 8.97561L17.865 14.2481L22.5 11.45Z" fill="#B5FF78"/>
<path d="M52.5 11.45L57.135 14.2481L55.905 8.97561L60 5.4281L54.6081 4.97124L52.5 0L50.3919 4.97124L45 5.4281L49.095 8.97561L47.865 14.2481L52.5 11.45Z" fill="#B5FF78"/>
</svg>
